<?xml version="1.0" encoding="UTF-8"?><svg xmlns="http://www.w3.org/2000/svg" viewBox="0 0 464.54 461.56"><defs><style>.cls-1{fill:#231f20;stroke:#231f20;}.cls-1,.cls-2{stroke-miterlimit:10;}.cls-3{fill:#ed1e2e;}.cls-4{fill:#f15f70;}.cls-2{fill:#f6e4cb;stroke:#f6e4cb;}</style></defs><g id="Layer_2"><circle class="cls-2" cx="230.78" cy="230.78" r="230.28"/></g><g id="Layer_1"><g><circle class="cls-1" cx="232.15" cy="232.65" r="193.67"/><rect class="cls-1" x="214.76" y="17.15" width="45.82" height="431"/><rect class="cls-1" x="207.87" y="17.15" width="45.82" height="431" transform="translate(463.43 1.87) rotate(90)"/><rect class="cls-1" x="207.87" y="17.15" width="45.82" height="431" transform="translate(232.1 -95.04) rotate(45)"/><rect class="cls-1" x="206" y="15.28" width="45.82" height="431" transform="translate(-96.14 229.46) rotate(-45)"/></g><g><polygon class="cls-4" points="71.39 21.94 208.14 121.4 251.65 21.94 292.06 93.43 379.08 21.94 341.45 150.26 464.54 112.07 366.65 228.71 461.44 258.25 329.35 318.75 375.97 362.26 321.58 362.26 352.66 457.13 273.41 379.35 156.86 457.13 187.94 345.17 92.8 409.32 138.21 296.99 10.79 348.28 94.7 251.93 10.79 216.19 116.46 188.22 20.11 104.3 130.44 149.37 71.39 21.94"/><polygon class="cls-3" points="153.75 141.6 180.95 197.54 133.55 219.3 180.17 239.53 118.01 269.02 180.17 273.69 153.75 342.06 226.79 300.1 233.28 365.37 258.65 292.33 299.83 331.18 302.93 272.13 363.54 255.04 321.58 228.71 363.54 175.79 309.15 191.33 309.15 124.51 268.75 168.02 254.76 124.51 220.57 177.34 153.75 141.6"/></g></g></svg>