<?xml version="1.0" encoding="UTF-8"?><svg xmlns="http://www.w3.org/2000/svg" viewBox="0 0 308.98 1010.25"><defs><style>.cls-1{fill:#3f3f3f;}.cls-2{fill:#979797;}.cls-2,.cls-3{mix-blend-mode:multiply;}.cls-4{fill:#4b4b4b;}.cls-5{fill:#222;}.cls-6{fill:#353635;}.cls-7{isolation:isolate;}.cls-8{fill:#3e3e3e;}.cls-9{fill:#1c1c1c;}.cls-10{fill:#6b6b6b;}.cls-11{fill:#575858;}.cls-3{fill:#b6b7b7;}.cls-12{fill:#505050;}.cls-13{fill:#747474;}.cls-14{fill:#414141;}.cls-15{fill:#1d1d1d;}.cls-16{fill:#2e2e2e;}.cls-17{fill:#302f2f;}.cls-18{fill:#292929;}.cls-19{fill:#1a1a1a;}.cls-20{fill:#525252;}.cls-21{fill:#5b5b5b;}</style></defs><g class="cls-7"><g id="Layer_1"><g><path class="cls-6" d="M97.03,461.47c-1.49,.93-.91,.64-2.56,1.26-1.73,.29-1.09,.24-2.84,.19-1.71-.4-1.1-.19-2.7-.92-45.85-26.47-41.21-23.52-43.07-25.51-.93-1.49-.64-.91-1.26-2.56-.29-1.73-.24-1.09-.19-2.84,.4-1.71,.19-1.1,.92-2.7,1.02-1.43,.6-.94,1.88-2.14,1.49-.93,.91-.64,2.56-1.26,1.73-.29,1.09-.24,2.84-.19,2.64,.62-2.23-1.93,43.63,24.55,1.43,1.02,.94,.6,2.14,1.88,.93,1.49,.64,.91,1.26,2.56l.23,1.41c-.06,1.76,.03,1.11-.37,2.83l-.59,1.3c-1.02,1.43-.6,.94-1.88,2.14Z"/><path class="cls-20" d="M98.87,459.12c-.35-.42-.17-.23-.8-.8l-.73-.56c-1.12-.79-.67-.48-1.96-1.34-1.43-.89-.88-.56-2.39-1.45-45.86-26.48-41.09-23.75-43.38-24.98-1.39-.7-.9-.46-2.14-1.03-1.04-.43-.7-.3-1.5-.56-.53-.09-.39-.09-.64-.01h0c.74-.94,.42-.63,1.43-1.36,1.24-.5,.75-.36,2.17-.6,1.55,.02,.96-.03,2.59,.26,2.52,.84-2.32-1.78,43.54,24.7,1.46,.98,.95,.58,2.23,1.72,1.06,1.26,.72,.78,1.52,2.11l.41,1.1c.19,1.33,.18,.85,.05,2.09l-.36,.91h0s-.04-.21-.04-.21Z"/><path class="cls-16" d="M69.41,460.66l22.12,12.77c1.23-2.13,13.19-22.84,15.91-27.56l-22.12-12.77c-3.66,6.35-7.63,13.22-15.91,27.56Z"/><path class="cls-11" d="M76.78,447.9l22.12,12.77c.5-.87,5.39-9.34,6.51-11.27l-22.12-12.77c-1.5,2.6-3.12,5.41-6.51,11.27Z"/><path class="cls-6" d="M99.83,551.82c.06,1.76,.1,1.11-.19,2.84-.62,1.65-.33,1.06-1.26,2.56-1.2,1.28-.71,.85-2.14,1.88-45.85,26.47-40.97,23.93-43.63,24.55-1.76,.06-1.11,.1-2.84-.19-1.65-.62-1.06-.33-2.56-1.26-1.28-1.2-.85-.71-1.88-2.14-.73-1.6-.52-.99-.92-2.7-.06-1.76-.1-1.11,.19-2.84,.62-1.65,.33-1.06,1.26-2.56,1.85-1.98-2.79,.97,43.07-25.51,1.6-.73,.99-.52,2.7-.92,1.76-.06,1.11-.1,2.84,.19l1.34,.5c1.49,.93,.98,.53,2.26,1.73l.83,1.16c.73,1.6,.52,.99,.92,2.7Z"/><path class="cls-20" d="M98.71,549.06c-.53,.09-.29,.03-1.09,.29l-.85,.35c-1.24,.57-.75,.34-2.14,1.03-1.48,.79-.93,.49-2.45,1.34-45.86,26.48-41.11,23.71-43.32,25.08-1.3,.85-.85,.55-1.96,1.34-.89,.69-.61,.46-1.24,1.02-.35,.42-.27,.29-.33,.55h0c-.44-1.11-.34-.68-.47-1.92,.19-1.33,.06-.83,.57-2.18,.8-1.33,.45-.85,1.52-2.11,1.98-1.76-2.7,1.12,43.16-25.36,1.57-.77,.98-.53,2.61-1.07,1.62-.29,1.03-.23,2.59-.26l1.16,.2c1.24,.5,.82,.27,1.84,1l.6,.77h0s-.2-.07-.2-.07Z"/><path class="cls-16" d="M85.32,575.34l22.12-12.77c-1.23-2.13-13.19-22.84-15.91-27.56l-22.12,12.77c3.66,6.35,7.63,13.22,15.91,27.56Z"/><path class="cls-11" d="M77.95,562.58l22.12-12.77c-.5-.87-5.39-9.34-6.51-11.27l-22.12,12.77c1.5,2.6,3.12,5.41,6.51,11.27Z"/><g><path class="cls-6" d="M179.47,413.87c1.55-.83,1.01-.47,2.37-1.58,1.12-1.36,.75-.82,1.58-2.37,.51-1.68,.38-1.04,.56-2.79,0-52.95,.24-47.45-.56-50.06-.83-1.55-.47-1.01-1.58-2.37-1.36-1.12-.82-.75-2.37-1.58-1.68-.51-1.05-.38-2.79-.56-1.75,.17-1.11,.05-2.79,.56-1.55,.83-1.01,.47-2.37,1.58-1.12,1.36-.75,.82-1.58,2.37-.79,2.6-.56-2.9-.56,50.06,.17,1.75,.05,1.11,.56,2.79,.83,1.55,.47,1.01,1.58,2.37l1.11,.91c1.55,.83,.95,.58,2.63,1.09l1.43,.14c1.75-.17,1.11-.05,2.79-.56Z"/><path class="cls-10" d="M176.52,414.29c-.19-.51-.12-.26-.29-1.09l-.12-.91c-.12-1.36-.08-.82-.17-2.37-.06-1.68-.04-1.04-.06-2.79,0-52.96-.03-47.46,.06-50.06,.09-1.55,.05-1.01,.17-2.37,.15-1.12,.09-.75,.26-1.58,.19-.51,.12-.38,.31-.56h0c-1.19,.17-.75,.05-1.9,.56-1.05,.83-.69,.47-1.61,1.58-.76,1.36-.51,.82-1.07,2.37-.53,2.6-.38-2.9-.38,50.06,.12,1.75,.03,1.11,.38,2.79,.56,1.55,.32,1.01,1.07,2.37l.75,.91c1.05,.83,.64,.58,1.79,1.09l.97,.14h0l-.16-.14Z"/><path class="cls-16" d="M192.59,389.55v25.54h-31.82v-25.54h31.82Z"/><path class="cls-11" d="M177.85,389.55v25.54h-13.01v-25.54h13.01Z"/></g><g><path class="cls-9" d="M179.47,594.58c1.55,.83,1.01,.47,2.37,1.58,1.12,1.36,.75,.82,1.58,2.37,.51,1.68,.38,1.04,.56,2.79,0,52.95,.24,47.45-.56,50.06-.83,1.55-.47,1.01-1.58,2.37-1.36,1.12-.82,.75-2.37,1.58-1.68,.51-1.05,.38-2.79,.56-1.75-.17-1.11-.05-2.79-.56-1.55-.83-1.01-.47-2.37-1.58-1.12-1.36-.75-.82-1.58-2.37-.79-2.6-.56,2.9-.56-50.06,.17-1.75,.05-1.11,.56-2.79,.83-1.55,.47-1.01,1.58-2.37l1.11-.91c1.55-.83,.95-.58,2.63-1.09l1.43-.14c1.75,.17,1.11,.05,2.79,.56Z"/><path class="cls-20" d="M176.52,594.16c-.19,.51-.12,.26-.29,1.09l-.12,.91c-.12,1.36-.08,.82-.17,2.37-.06,1.68-.04,1.04-.06,2.79,0,52.96-.03,47.46,.06,50.06,.09,1.55,.05,1.01,.17,2.37,.15,1.12,.09,.75,.26,1.58,.19,.51,.12,.38,.31,.56h0c-1.19-.17-.75-.05-1.9-.56-1.05-.83-.69-.47-1.61-1.58-.76-1.36-.51-.82-1.07-2.37-.53-2.6-.38,2.9-.38-50.06,.12-1.75,.03-1.11,.38-2.79,.56-1.55,.32-1.01,1.07-2.37l.75-.91c1.05-.83,.64-.58,1.79-1.09l.97-.14h0l-.16,.14Z"/><path class="cls-19" d="M192.59,618.9v-25.54h-31.82v25.54h31.82Z"/><path class="cls-1" d="M177.85,618.9v-25.54h-13.01v25.54h13.01Z"/></g><g><path class="cls-9" d="M253.53,551.82c-.06,1.76-.1,1.11,.19,2.84,.62,1.65,.33,1.06,1.26,2.56,1.2,1.28,.71,.85,2.14,1.88,45.85,26.47,40.97,23.93,43.63,24.55,1.76,.06,1.11,.1,2.84-.19,1.65-.62,1.06-.33,2.56-1.26,1.28-1.2,.85-.71,1.88-2.14,.73-1.6,.52-.99,.92-2.7,.06-1.76,.1-1.11-.19-2.84-.62-1.65-.33-1.06-1.26-2.56-1.85-1.98,2.79,.97-43.07-25.51-1.6-.73-.99-.52-2.7-.92-1.76-.06-1.11-.1-2.84,.19l-1.34,.5c-1.49,.93-.98,.53-2.26,1.73l-.83,1.16c-.73,1.6-.52,.99-.92,2.7Z"/><path class="cls-20" d="M254.64,549.06c.53,.09,.29,.03,1.09,.29l.85,.35c1.24,.57,.75,.34,2.14,1.03,1.48,.79,.93,.49,2.45,1.34,45.86,26.48,41.11,23.71,43.32,25.08,1.3,.85,.85,.55,1.96,1.34,.89,.69,.61,.46,1.24,1.02,.35,.42,.27,.29,.33,.55h0c.44-1.11,.34-.68,.47-1.92-.19-1.33-.06-.83-.57-2.18-.8-1.33-.45-.85-1.52-2.11-1.98-1.76,2.7,1.12-43.16-25.36-1.57-.77-.98-.53-2.61-1.07-1.62-.29-1.03-.23-2.59-.26l-1.16,.2c-1.24,.5-.82,.27-1.84,1l-.6,.77h0s.2-.07,.2-.07Z"/><path class="cls-19" d="M268.04,575.34l-22.12-12.77c1.23-2.13,13.19-22.84,15.91-27.56l22.12,12.77c-3.66,6.35-7.63,13.22-15.91,27.56Z"/><path class="cls-1" d="M275.41,562.58l-22.12-12.77c.5-.87,5.39-9.34,6.51-11.27l22.12,12.77c-1.5,2.6-3.12,5.41-6.51,11.27Z"/></g><g><path class="cls-9" d="M256.32,461.47c1.49,.93,.91,.64,2.56,1.26,1.73,.29,1.09,.24,2.84,.19,1.71-.4,1.1-.19,2.7-.92,45.85-26.47,41.21-23.52,43.07-25.51,.93-1.49,.64-.91,1.26-2.56,.29-1.73,.24-1.09,.19-2.84-.4-1.71-.19-1.1-.92-2.7-1.02-1.43-.6-.94-1.88-2.14-1.49-.93-.91-.64-2.56-1.26-1.73-.29-1.09-.24-2.84-.19-2.64,.62,2.23-1.93-43.63,24.55-1.43,1.02-.94,.6-2.14,1.88-.93,1.49-.64,.91-1.26,2.56l-.23,1.41c.06,1.76-.03,1.11,.37,2.83l.59,1.3c1.02,1.43,.6,.94,1.88,2.14Z"/><path class="cls-20" d="M254.49,459.12c.35-.42,.17-.23,.8-.8l.73-.56c1.12-.79,.67-.48,1.96-1.34,1.43-.89,.88-.56,2.39-1.45,45.86-26.48,41.09-23.75,43.38-24.98,1.39-.7,.9-.46,2.14-1.03,1.04-.43,.7-.3,1.5-.56,.53-.09,.39-.09,.64-.01h0c-.74-.94-.42-.63-1.43-1.36-1.24-.5-.75-.36-2.17-.6-1.55,.02-.96-.03-2.59,.26-2.52,.84,2.32-1.78-43.54,24.7-1.46,.98-.95,.58-2.23,1.72-1.06,1.26-.72,.78-1.52,2.11l-.41,1.1c-.19,1.33-.18,.85-.05,2.09l.36,.91h0s.04-.21,.04-.21Z"/><path class="cls-19" d="M283.95,460.66l-22.12,12.77c-1.23-2.13-13.19-22.84-15.91-27.56l22.12-12.77c3.66,6.35,7.63,13.22,15.91,27.56Z"/><path class="cls-1" d="M276.58,447.9l-22.12,12.77c-.5-.87-5.39-9.34-6.51-11.27l22.12-12.77c1.5,2.6,3.12,5.41,6.51,11.27Z"/></g><circle class="cls-5" cx="176.68" cy="504.23" r="102.42"/><ellipse class="cls-6" cx="147.12" cy="474.67" rx="78.69" ry="58.57" transform="translate(-292.55 243.05) rotate(-45)"/><ellipse class="cls-8" cx="141.32" cy="470.46" rx="66.13" ry="44.82" transform="translate(-291.27 237.73) rotate(-45)"/><path class="cls-2" d="M239.16,462.96c-1.5-4-.82-2.54-2.98-6.41-2.75-3.64-1.63-2.35-4.88-5.64-3.66-2.84-2.24-1.88-6.2-4.19-4.13-1.7-2.59-1.19-6.76-2.23l-3.34-.28c-3.9,.35-2.51,.09-6.09,1.13-3.15,1.7-2.08,.95-4.7,3.26-2.02,2.84-1.39,1.7-2.75,4.99-.65,3.64-.54,2.24-.46,6.12l.66,3.26c1.5,4,.82,2.54,2.98,6.41,2.75,3.64,1.63,2.35,4.89,5.64l2.98,2.31c3.95,2.3,2.45,1.56,6.58,3.26,4.18,1.04,2.64,.78,6.74,1.13,3.9-.35,2.51-.09,6.09-1.13l2.56-1.38c2.62-2.3,1.76-1.35,3.78-4.19,1.35-3.29,.98-2,1.63-5.64-.08-3.88,.08-2.42-.72-6.41Z"/><path class="cls-3" d="M161.9,465.34c-1.5-4-.82-2.54-2.98-6.41-2.75-3.64-1.63-2.35-4.88-5.64-3.66-2.84-2.24-1.88-6.2-4.19-4.13-1.7-2.59-1.19-6.76-2.23l-3.34-.28c-3.9,.35-2.51,.09-6.09,1.13-3.15,1.7-2.08,.95-4.7,3.26-2.02,2.84-1.39,1.7-2.75,4.99-.65,3.64-.54,2.24-.46,6.12l.66,3.26c1.5,4,.82,2.54,2.98,6.41,2.75,3.64,1.63,2.35,4.89,5.64l2.98,2.31c3.95,2.3,2.45,1.56,6.58,3.26,4.18,1.04,2.64,.78,6.74,1.13,3.9-.35,2.51-.09,6.09-1.13l2.56-1.38c2.62-2.3,1.76-1.35,3.78-4.19,1.35-3.29,.98-2,1.63-5.64-.08-3.88,.08-2.42-.72-6.41Z"/><path class="cls-3" d="M160.08,557.09c-1.5-4-.82-2.54-2.98-6.41-2.75-3.64-1.63-2.35-4.88-5.64-3.66-2.84-2.24-1.88-6.2-4.19-4.13-1.7-2.59-1.19-6.76-2.23l-3.34-.28c-3.9,.35-2.51,.09-6.09,1.13-3.15,1.7-2.08,.95-4.7,3.26-2.02,2.84-1.39,1.7-2.75,4.99-.65,3.64-.54,2.24-.46,6.12l.66,3.26c1.5,4,.82,2.54,2.98,6.41,2.75,3.64,1.63,2.35,4.89,5.64l2.98,2.31c3.95,2.3,2.45,1.56,6.58,3.26,4.18,1.04,2.64,.78,6.74,1.13,3.9-.35,2.51-.09,6.09-1.13l2.56-1.38c2.62-2.3,1.76-1.35,3.78-4.19,1.35-3.29,.98-2,1.63-5.64-.08-3.88,.08-2.42-.72-6.41Z"/><path class="cls-3" d="M248.42,559.44c-1.75-4.56-.96-2.89-3.48-7.32-3.2-4.15-1.9-2.68-5.69-6.44-4.26-3.24-2.62-2.15-7.23-4.78-4.81-1.94-3.01-1.36-7.89-2.54l-3.89-.33c-4.54,.4-2.92,.1-7.1,1.29-3.67,1.94-2.42,1.09-5.48,3.72-2.35,3.24-1.62,1.94-3.2,5.69-.75,4.15-.63,2.56-.54,6.99l.76,3.72c1.75,4.56,.96,2.9,3.48,7.32,3.2,4.15,1.9,2.68,5.7,6.44l3.47,2.64c4.61,2.63,2.86,1.78,7.67,3.72,4.87,1.19,3.08,.89,7.86,1.29,4.55-.4,2.93-.1,7.1-1.29l2.99-1.58c3.06-2.63,2.05-1.54,4.41-4.78,1.58-3.75,1.14-2.29,1.9-6.44-.09-4.43,.1-2.76-.84-7.32Z"/><path class="cls-18" d="M118.57,459.83l2.14,.62c2.86,.26,1.77,.26,4.79,0,3.07-.76,1.94-.39,4.97-1.64,2.9-1.69,1.87-.99,4.55-3.08,2.39-2.42,1.57-1.47,3.59-4.14,1.59-2.85,1.09-1.77,2.19-4.71l.48-2.39c.06-2.85,.14-1.82-.34-4.5-.99-2.42-.53-1.58-2.02-3.67,12.54,14.47,10.66,12.2,12.27,14.47,.99,2.42,.72,1.47,1.2,4.14l-.05,2.32c-.59,2.94-.28,1.85-1.38,4.78-1.59,2.85-.92,1.82-2.93,4.5-2.39,2.42-1.45,1.58-4.13,3.67l-2.37,1.38c-3.03,1.25-1.9,.87-4.97,1.64-3.01,.26-1.92,.26-4.78,0-2.63-.76-1.71-.39-4.02-1.64-2.1-1.84-.11,.31-12.63-14.15,1.93,1.69,1.14,1.15,3.45,2.39Z"/><path class="cls-12" d="M113.24,446.89c1.11-2.94,.61-1.86,2.19-4.71,2.02-2.67,1.2-1.73,3.59-4.14,2.69-2.09,1.65-1.38,4.55-3.08,3.03-1.25,1.9-.87,4.97-1.64l2.45-.21c2.86,.26,1.84,.07,4.47,.83,2.31,1.25,1.53,.7,3.45,2.39,1.48,2.09,1.02,1.25,2.02,3.67,.47,2.67,.4,1.65,.34,4.5l-.48,2.39c-1.11,2.94-.61,1.86-2.19,4.71-2.02,2.67-1.2,1.73-3.59,4.14l-2.19,1.7c-2.9,1.69-1.8,1.15-4.83,2.39-3.07,.76-1.94,.57-4.95,.83-2.86-.26-1.84-.07-4.47-.83l-1.88-1.01c-1.93-1.69-1.29-.99-2.78-3.08-.99-2.42-.72-1.47-1.2-4.14,.06-2.85-.06-1.77,.53-4.71Z"/><path class="cls-21" d="M104.59,428.29c.15-.77,.2-1.44,1.2-3,.95-1.26,1.33-1.58,2.64-2.34,.4-.18,.78-.33,1.22-.52,1.17-.29,.74-.22,1.89-.32,.89,.06,.49,.03,1.7,.14,1.11,.32,.72,.18,1.72,.61,1.04,.56,.69,.32,1.56,1.06,.93,.81,.27,.12,3.28,3.59,1.85,2.14,3.26,3.77,5.12,5.91,2.35,2.71,4.29,4.94,5.91,6.79,.74,.84,1.4,1.61,2.01,2.3,.04,.1,.09,.21,.14,.35,.23,1.28,.19,.79,.16,2.16l-.23,1.15c-.53,1.41-.29,.89-1.05,2.26-.97,1.28-.58,.83-1.72,1.99l-1.05,.81c-1.39,.81-.86,.55-2.32,1.15-1.47,.37-.93,.28-2.37,.4-1.37-.12-.88-.03-2.15-.4l-.48-.26c-.61-.7-1.28-1.48-2.01-2.33-2.63-3.04-6.13-7.11-10.87-12.58-2.84-3.27-3.23-3.58-3.98-5.41-.42-1.58-.46-1.72-.31-3.5Z"/><path class="cls-15" d="M142.72,470.89c-.5-.58-1.02-1.18-1.6-1.85-2.35-2.73-5.42-6.28-9.44-10.93,1.43-.82,1.13-.66,3.33-2.37,2.39-2.42,1.57-1.47,3.59-4.14,1.59-2.85,1.09-1.77,2.19-4.71l.09-.45c.09,.11,.18,.21,.29,.33,1.85,2.14,3.26,3.77,5.12,5.91,2.24,2.58,4.1,4.72,5.67,6.52-.16,.74-.27,.93-1,2.86-1.59,2.85-.92,1.82-2.93,4.5-2.39,2.42-1.45,1.58-4.13,3.67l-1.17,.68Z"/><g><path class="cls-6" d="M130.14,450.42l-1.05,.81c-.08,.05-.15,.09-.22,.13l1.27-.95Z"/><path class="cls-6" d="M115.68,427.09l17.27,18.91-.03,.17c-.53,1.41-.29,.89-1.05,2.26-.97,1.28-.58,.83-1.72,1.99l-23.38-26.28c6.19-.83,8.92,2.95,8.92,2.95Z"/></g><path class="cls-14" d="M234.78,548.62l-2.14-.62c-2.86-.26-1.77-.26-4.79,0-3.07,.76-1.94,.39-4.97,1.64-2.9,1.69-1.87,.99-4.55,3.08-2.39,2.42-1.57,1.47-3.59,4.14-1.59,2.85-1.09,1.77-2.19,4.71l-.48,2.39c-.06,2.85-.14,1.82,.34,4.5,.99,2.42,.53,1.58,2.02,3.67-12.54-14.47-10.66-12.2-12.27-14.47-.99-2.42-.72-1.47-1.2-4.14l.05-2.32c.59-2.94,.28-1.85,1.38-4.78,1.59-2.85,.92-1.82,2.93-4.5,2.39-2.42,1.45-1.58,4.13-3.67l2.37-1.38c3.03-1.25,1.9-.87,4.97-1.64,3.01-.26,1.92-.26,4.78,0,2.63,.76,1.71,.39,4.02,1.64,2.1,1.84,.11-.31,12.63,14.15-1.93-1.69-1.14-1.15-3.45-2.39Z"/><path class="cls-19" d="M240.11,561.56c-1.11,2.94-.61,1.86-2.19,4.71-2.02,2.67-1.2,1.73-3.59,4.14-2.69,2.09-1.65,1.38-4.55,3.08-3.03,1.25-1.9,.87-4.97,1.64l-2.45,.21c-2.86-.26-1.84-.07-4.47-.83-2.31-1.25-1.53-.7-3.45-2.39-1.48-2.09-1.02-1.25-2.02-3.67-.47-2.67-.4-1.65-.34-4.5l.48-2.39c1.11-2.94,.61-1.86,2.19-4.71,2.02-2.67,1.2-1.73,3.59-4.14l2.19-1.7c2.9-1.69,1.8-1.15,4.83-2.39,3.07-.76,1.94-.57,4.95-.83,2.86,.26,1.84,.07,4.47,.83l1.88,1.01c1.93,1.69,1.29,.99,2.78,3.08,.99,2.42,.72,1.47,1.2,4.14-.06,2.85,.06,1.77-.53,4.71Z"/><path class="cls-4" d="M248.77,580.16c-.15,.77-.2,1.44-1.2,3-.95,1.26-1.33,1.58-2.64,2.34-.4,.18-.78,.33-1.22,.52-1.17,.29-.74,.22-1.89,.32-.89-.06-.49-.03-1.7-.14-1.11-.32-.72-.18-1.72-.61-1.04-.56-.69-.32-1.56-1.06-.93-.81-.27-.12-3.28-3.59-1.85-2.14-3.26-3.77-5.12-5.91-2.35-2.71-4.29-4.94-5.91-6.79-.74-.84-1.4-1.61-2.01-2.3-.04-.1-.09-.21-.14-.35-.23-1.28-.19-.79-.16-2.16l.23-1.15c.53-1.41,.29-.89,1.05-2.26,.97-1.28,.58-.83,1.72-1.99l1.05-.81c1.39-.81,.86-.55,2.32-1.15,1.47-.37,.93-.28,2.37-.4,1.37,.12,.88,.03,2.15,.4l.49,.26c.61,.7,1.28,1.48,2.01,2.33,2.63,3.04,6.13,7.11,10.87,12.58,2.84,3.27,3.23,3.58,3.98,5.41,.42,1.58,.46,1.72,.31,3.5Z"/><path class="cls-13" d="M210.63,537.56c.5,.58,1.02,1.18,1.6,1.85,2.35,2.73,5.42,6.28,9.44,10.93-1.43,.82-1.13,.66-3.33,2.37-2.39,2.42-1.57,1.47-3.59,4.14-1.59,2.85-1.09,1.77-2.19,4.71l-.09,.45c-.09-.11-.18-.21-.29-.33-1.85-2.14-3.26-3.77-5.12-5.91-2.24-2.58-4.1-4.72-5.67-6.52,.16-.74,.27-.93,1-2.86,1.59-2.85,.92-1.82,2.93-4.5,2.39-2.42,1.45-1.58,4.13-3.67l1.17-.68Z"/><g><path class="cls-13" d="M223.21,558.03l1.05-.81c.08-.05,.15-.09,.22-.13l-1.27,.95Z"/><path class="cls-13" d="M237.67,581.36l-17.27-18.91,.03-.17c.53-1.41,.29-.89,1.05-2.26,.97-1.28,.58-.83,1.72-1.99l23.38,26.28c-6.19,.83-8.92-2.95-8.92-2.95Z"/></g><path class="cls-6" d="M118.57,548.62l2.14-.62c2.86-.26,1.77-.26,4.79,0,3.07,.76,1.94,.39,4.97,1.64,2.9,1.69,1.87,.99,4.55,3.08,2.39,2.42,1.57,1.47,3.59,4.14,1.59,2.85,1.09,1.77,2.19,4.71l.48,2.39c.06,2.85,.14,1.82-.34,4.5-.99,2.42-.53,1.58-2.02,3.67,12.54-14.47,10.66-12.2,12.27-14.47,.99-2.42,.72-1.47,1.2-4.14l-.05-2.32c-.59-2.94-.28-1.85-1.38-4.78-1.59-2.85-.92-1.82-2.93-4.5-2.39-2.42-1.45-1.58-4.13-3.67l-2.37-1.38c-3.03-1.25-1.9-.87-4.97-1.64-3.01-.26-1.92-.26-4.78,0-2.63,.76-1.71,.39-4.02,1.64-2.1,1.84-.11-.31-12.63,14.15,1.93-1.69,1.14-1.15,3.45-2.39Z"/><path class="cls-17" d="M113.24,561.56c1.11,2.94,.61,1.86,2.19,4.71,2.02,2.67,1.2,1.73,3.59,4.14,2.69,2.09,1.65,1.38,4.55,3.08,3.03,1.25,1.9,.87,4.97,1.64l2.45,.21c2.86-.26,1.84-.07,4.47-.83,2.31-1.25,1.53-.7,3.45-2.39,1.48-2.09,1.02-1.25,2.02-3.67,.47-2.67,.4-1.65,.34-4.5l-.48-2.39c-1.11-2.94-.61-1.86-2.19-4.71-2.02-2.67-1.2-1.73-3.59-4.14l-2.19-1.7c-2.9-1.69-1.8-1.15-4.83-2.39-3.07-.76-1.94-.57-4.95-.83-2.86,.26-1.84,.07-4.47,.83l-1.88,1.01c-1.93,1.69-1.29,.99-2.78,3.08-.99,2.42-.72,1.47-1.2,4.14,.06,2.85-.06,1.77,.53,4.71Z"/><path class="cls-4" d="M104.59,580.16c.15,.77,.2,1.44,1.2,3,.95,1.26,1.33,1.58,2.64,2.34,.4,.18,.78,.33,1.22,.52,1.17,.29,.74,.22,1.89,.32,.89-.06,.49-.03,1.7-.14,1.11-.32,.72-.18,1.72-.61,1.04-.56,.69-.32,1.56-1.06,.93-.81,.27-.12,3.28-3.59,1.85-2.14,3.26-3.77,5.12-5.91,2.35-2.71,4.29-4.94,5.91-6.79,.74-.84,1.4-1.61,2.01-2.3,.04-.1,.09-.21,.14-.35,.23-1.28,.19-.79,.16-2.16l-.23-1.15c-.53-1.41-.29-.89-1.05-2.26-.97-1.28-.58-.83-1.72-1.99l-1.05-.81c-1.39-.81-.86-.55-2.32-1.15-1.47-.37-.93-.28-2.37-.4-1.37,.12-.88,.03-2.15,.4l-.48,.26c-.61,.7-1.28,1.48-2.01,2.33-2.63,3.04-6.13,7.11-10.87,12.58-2.84,3.27-3.23,3.58-3.98,5.41-.42,1.58-.46,1.72-.31,3.5Z"/><path class="cls-15" d="M142.72,537.56c-.5,.58-1.02,1.18-1.6,1.85-2.35,2.73-5.42,6.28-9.44,10.93,1.43,.82,1.13,.66,3.33,2.37,2.39,2.42,1.57,1.47,3.59,4.14,1.59,2.85,1.09,1.77,2.19,4.71l.09,.45c.09-.11,.18-.21,.29-.33,1.85-2.14,3.26-3.77,5.12-5.91,2.24-2.58,4.1-4.72,5.67-6.52-.16-.74-.27-.93-1-2.86-1.59-2.85-.92-1.82-2.93-4.5-2.39-2.42-1.45-1.58-4.13-3.67l-1.17-.68Z"/><g><path class="cls-6" d="M130.14,558.03l-1.05-.81c-.08-.05-.15-.09-.22-.13l1.27,.95Z"/><path class="cls-6" d="M115.68,581.36l17.27-18.91-.03-.17c-.53-1.41-.29-.89-1.05-2.26-.97-1.28-.58-.83-1.72-1.99l-23.38,26.28c6.19,.83,8.92-2.95,8.92-2.95Z"/></g><path class="cls-14" d="M234.78,459.83l-2.14,.62c-2.86,.26-1.77,.26-4.79,0-3.07-.76-1.94-.39-4.97-1.64-2.9-1.69-1.87-.99-4.55-3.08-2.39-2.42-1.57-1.47-3.59-4.14-1.59-2.85-1.09-1.77-2.19-4.71l-.48-2.39c-.06-2.85-.14-1.82,.34-4.5,.99-2.42,.53-1.58,2.02-3.67-12.54,14.47-10.66,12.2-12.27,14.47-.99,2.42-.72,1.47-1.2,4.14l.05,2.32c.59,2.94,.28,1.85,1.38,4.78,1.59,2.85,.92,1.82,2.93,4.5,2.39,2.42,1.45,1.58,4.13,3.67l2.37,1.38c3.03,1.25,1.9,.87,4.97,1.64,3.01,.26,1.92,.26,4.78,0,2.63-.76,1.71-.39,4.02-1.64,2.1-1.84,.11,.31,12.63-14.15-1.93,1.69-1.14,1.15-3.45,2.39Z"/><path class="cls-19" d="M240.11,446.89c-1.11-2.94-.61-1.86-2.19-4.71-2.02-2.67-1.2-1.73-3.59-4.14-2.69-2.09-1.65-1.38-4.55-3.08-3.03-1.25-1.9-.87-4.97-1.64l-2.45-.21c-2.86,.26-1.84,.07-4.47,.83-2.31,1.25-1.53,.7-3.45,2.39-1.48,2.09-1.02,1.25-2.02,3.67-.47,2.67-.4,1.65-.34,4.5l.48,2.39c1.11,2.94,.61,1.86,2.19,4.71,2.02,2.67,1.2,1.73,3.59,4.14l2.19,1.7c2.9,1.69,1.8,1.15,4.83,2.39,3.07,.76,1.94,.57,4.95,.83,2.86-.26,1.84-.07,4.47-.83l1.88-1.01c1.93-1.69,1.29-.99,2.78-3.08,.99-2.42,.72-1.47,1.2-4.14-.06-2.85,.06-1.77-.53-4.71Z"/><path class="cls-4" d="M248.77,428.29c-.15-.77-.2-1.44-1.2-3-.95-1.26-1.33-1.58-2.64-2.34-.4-.18-.78-.33-1.22-.52-1.17-.29-.74-.22-1.89-.32-.89,.06-.49,.03-1.7,.14-1.11,.32-.72,.18-1.72,.61-1.04,.56-.69,.32-1.56,1.06-.93,.81-.27,.12-3.28,3.59-1.85,2.14-3.26,3.77-5.12,5.91-2.35,2.71-4.29,4.94-5.91,6.79-.74,.84-1.4,1.61-2.01,2.3-.04,.1-.09,.21-.14,.35-.23,1.28-.19,.79-.16,2.16l.23,1.15c.53,1.41,.29,.89,1.05,2.26,.97,1.28,.58,.83,1.72,1.99l1.05,.81c1.39,.81,.86,.55,2.32,1.15,1.47,.37,.93,.28,2.37,.4,1.37-.12,.88-.03,2.15-.4l.49-.26c.61-.7,1.28-1.48,2.01-2.33,2.63-3.04,6.13-7.11,10.87-12.58,2.84-3.27,3.23-3.58,3.98-5.41,.42-1.58,.46-1.72,.31-3.5Z"/><path class="cls-13" d="M210.63,470.89c.5-.58,1.02-1.18,1.6-1.85,2.35-2.73,5.42-6.28,9.44-10.93-1.43-.82-1.13-.66-3.33-2.37-2.39-2.42-1.57-1.47-3.59-4.14-1.59-2.85-1.09-1.77-2.19-4.71l-.09-.45c-.09,.11-.18,.21-.29,.33-1.85,2.14-3.26,3.77-5.12,5.91-2.24,2.58-4.1,4.72-5.67,6.52,.16,.74,.27,.93,1,2.86,1.59,2.85,.92,1.82,2.93,4.5,2.39,2.42,1.45,1.58,4.13,3.67l1.17,.68Z"/><g><path class="cls-13" d="M223.21,450.42l1.05,.81c.08,.05,.15,.09,.22,.13l-1.27-.95Z"/><path class="cls-13" d="M237.67,427.09l-17.27,18.91,.03,.17c.53,1.41,.29,.89,1.05,2.26,.97,1.28,.58,.83,1.72,1.99l23.38-26.28c-6.19-.83-8.92,2.95-8.92,2.95Z"/></g></g></g></g></svg>