<?xml version="1.0" encoding="UTF-8"?><svg id="Layer_1" xmlns="http://www.w3.org/2000/svg" viewBox="0 0 224.79 356.75"><defs><style>.cls-1{fill:#f15f70;}.cls-2{fill:#231f20;}</style></defs><path class="cls-2" d="M0,100.75C2.69,69.86,14.29,45.35,34.81,27.21,55.33,9.07,81.35,0,112.87,0c33.42,0,60.43,8.91,81.03,26.73,20.59,17.82,30.89,40.52,30.89,68.08,0,15.53-3.53,29.94-10.57,43.25-7.05,13.31-20.32,28.04-39.8,44.2-19.49,16.16-31.45,29.03-35.88,38.61-4.44,9.59-6.65,25.54-6.65,47.88h-41.82c0-29.47,3.4-51.05,10.22-64.75,6.81-13.7,19.37-28.31,37.66-43.84,18.3-15.52,29.66-27.45,34.1-35.76,4.43-8.32,6.65-17.15,6.65-26.49,0-18.22-6.02-33.23-18.06-45.03-12.04-11.8-27.8-17.7-47.29-17.7-38.02,0-60.36,21.86-67.01,65.58H0ZM136.72,356.75h-49v-49h49v49Zm0,0h-49v-49h49v49Z"/><rect class="cls-1" x="86.48" y="307.75" width="51.24" height="49"/></svg>